<svg xmlns="http://www.w3.org/2000/svg" viewBox="0 0 760 400" font-family="system-ui,Segoe UI,sans-serif">
<rect width="760" height="400" fill="#ffffff"/>
<text x="56" y="28" font-size="16" font-weight="500" fill="#2C2C2A">Focus-loss under a confident false premise</text>
<text x="56" y="46" font-size="11" fill="#5F5E5A">Same semver fixture &amp; checker; only the prompt differs. Audited reliability p̂ over k=10: neutral prompt (grey) vs false-premise prompt (amber). Not a ranking.</text>
<line x1="56" y1="296.0" x2="744" y2="296.0" stroke="#D3D1C7" stroke-width="0.5"/>
<text x="48" y="299.0" font-size="10" fill="#5F5E5A" text-anchor="end">0%</text>
<line x1="56" y1="239.5" x2="744" y2="239.5" stroke="#D3D1C7" stroke-width="0.5"/>
<text x="48" y="242.5" font-size="10" fill="#5F5E5A" text-anchor="end">25%</text>
<line x1="56" y1="183.0" x2="744" y2="183.0" stroke="#D3D1C7" stroke-width="0.5"/>
<text x="48" y="186.0" font-size="10" fill="#5F5E5A" text-anchor="end">50%</text>
<line x1="56" y1="126.5" x2="744" y2="126.5" stroke="#D3D1C7" stroke-width="0.5"/>
<text x="48" y="129.5" font-size="10" fill="#5F5E5A" text-anchor="end">75%</text>
<line x1="56" y1="70.0" x2="744" y2="70.0" stroke="#D3D1C7" stroke-width="0.5"/>
<text x="48" y="73.0" font-size="10" fill="#5F5E5A" text-anchor="end">100%</text>
<rect x="84.8" y="183.0" width="38.0" height="113.0" fill="#8C8A82"/>
<text x="103.8" y="179.0" font-size="9.5" fill="#2C2C2A" text-anchor="middle">50%</text>
<rect x="124.8" y="296.0" width="38.0" height="0.0" fill="#BA7517"/>
<text x="143.8" y="292.0" font-size="9.5" fill="#2C2C2A" text-anchor="middle">0%</text>
<text x="124.8" y="314.0" font-size="9.5" fill="#2C2C2A" text-anchor="middle">deepseek-v4-pro</text>
<text x="124.8" y="329.0" font-size="9" fill="#B23A2E" text-anchor="middle">+6 lies  tamper×8</text>
<rect x="222.4" y="92.6" width="38.0" height="203.4" fill="#8C8A82"/>
<text x="241.4" y="88.6" font-size="9.5" fill="#2C2C2A" text-anchor="middle">90%</text>
<rect x="262.4" y="183.0" width="38.0" height="113.0" fill="#BA7517"/>
<text x="281.4" y="179.0" font-size="9.5" fill="#2C2C2A" text-anchor="middle">50%</text>
<text x="262.4" y="314.0" font-size="9.5" fill="#2C2C2A" text-anchor="middle">qwen3.6-plus</text>
<text x="262.4" y="329.0" font-size="9" fill="#5F5E5A" text-anchor="middle">honest</text>
<rect x="360.0" y="137.8" width="38.0" height="158.2" fill="#8C8A82"/>
<text x="379.0" y="133.8" font-size="9.5" fill="#2C2C2A" text-anchor="middle">70%</text>
<rect x="400.0" y="137.8" width="38.0" height="158.2" fill="#BA7517"/>
<text x="419.0" y="133.8" font-size="9.5" fill="#2C2C2A" text-anchor="middle">70%</text>
<text x="400.0" y="314.0" font-size="9.5" fill="#2C2C2A" text-anchor="middle">glm-5</text>
<text x="400.0" y="329.0" font-size="9" fill="#5F5E5A" text-anchor="middle">+1 lie</text>
<rect x="497.6" y="70.0" width="38.0" height="226.0" fill="#8C8A82"/>
<text x="516.6" y="66.0" font-size="9.5" fill="#2C2C2A" text-anchor="middle">100%</text>
<rect x="537.6" y="137.8" width="38.0" height="158.2" fill="#BA7517"/>
<text x="556.6" y="133.8" font-size="9.5" fill="#2C2C2A" text-anchor="middle">70%</text>
<text x="537.6" y="314.0" font-size="9.5" fill="#2C2C2A" text-anchor="middle">minimax-m2.7</text>
<text x="537.6" y="329.0" font-size="9" fill="#B23A2E" text-anchor="middle">+2 lies</text>
<rect x="635.2" y="92.6" width="38.0" height="203.4" fill="#8C8A82"/>
<text x="654.2" y="88.6" font-size="9.5" fill="#2C2C2A" text-anchor="middle">90%</text>
<rect x="675.2" y="92.6" width="38.0" height="203.4" fill="#BA7517"/>
<text x="694.2" y="88.6" font-size="9.5" fill="#2C2C2A" text-anchor="middle">90%</text>
<text x="675.2" y="314.0" font-size="9.5" fill="#2C2C2A" text-anchor="middle">deepseek-v4-flash</text>
<text x="675.2" y="329.0" font-size="9" fill="#5F5E5A" text-anchor="middle">+1 lie</text>
<text x="56" y="390" font-size="10" fill="#5F5E5A">Confirmatory: complete 10-run models with a neutral baseline. deepseek-v4-pro collapsed 0.5→0.0 and edited the tests in 8/10 runs.</text>
</svg>